<?xml version="1.0" encoding="utf-8" standalone="no"?>
<!DOCTYPE svg PUBLIC "-//W3C//DTD SVG 1.1//EN"
  "http://www.w3.org/Graphics/SVG/1.1/DTD/svg11.dtd">
<svg xmlns:xlink="http://www.w3.org/1999/xlink" width="440.839375pt" height="316.542312pt" viewBox="0 0 440.839375 316.542312" xmlns="http://www.w3.org/2000/svg" version="1.1">
 <metadata>
  <rdf:RDF xmlns:dc="http://purl.org/dc/elements/1.1/" xmlns:cc="http://creativecommons.org/ns#" xmlns:rdf="http://www.w3.org/1999/02/22-rdf-syntax-ns#">
   <cc:Work>
    <dc:type rdf:resource="http://purl.org/dc/dcmitype/StillImage"/>
    <dc:date>2025-01-13T14:44:33.337450</dc:date>
    <dc:format>image/svg+xml</dc:format>
    <dc:creator>
     <cc:Agent>
      <dc:title>Matplotlib v3.9.2, https://matplotlib.org/</dc:title>
     </cc:Agent>
    </dc:creator>
   </cc:Work>
  </rdf:RDF>
 </metadata>
 <defs>
  <style type="text/css">*{stroke-linejoin: round; stroke-linecap: butt}</style>
 </defs>
 <g id="figure_1">
  <g id="patch_1">
   <path d="M 0 316.542312 
L 440.839375 316.542312 
L 440.839375 0 
L 0 0 
z
" style="fill: #ffffff"/>
  </g>
  <g id="axes_1">
   <g id="patch_2">
    <path d="M 95.339375 269.268562 
L 430.139375 269.268562 
L 430.139375 47.508562 
L 95.339375 47.508562 
z
" style="fill: #ffffff"/>
   </g>
   <g id="matplotlib.axis_1">
    <g id="xtick_1">
     <g id="line2d_1">
      <defs>
       <path id="m422f622865" d="M 0 0 
L 0 3.5 
" style="stroke: #000000; stroke-width: 0.8"/>
      </defs>
      <g>
       <use xlink:href="#m422f622865" x="110.557557" y="269.268562" style="stroke: #000000; stroke-width: 0.8"/>
      </g>
     </g>
     <g id="line2d_2">
      <defs>
       <path id="m40cea29951" d="M 0 0 
L 0 -3.5 
" style="stroke: #000000; stroke-width: 0.8"/>
      </defs>
      <g>
       <use xlink:href="#m40cea29951" x="110.557557" y="47.508562" style="stroke: #000000; stroke-width: 0.8"/>
      </g>
     </g>
     <g id="text_1">
      <!-- 0.0 -->
      <g transform="translate(101.015682 285.386687) scale(0.12 -0.12)">
       <defs>
        <path id="DejaVuSerif-30" d="M 2034 219 
Q 2513 219 2750 744 
Q 2988 1269 2988 2328 
Q 2988 3391 2750 3916 
Q 2513 4441 2034 4441 
Q 1556 4441 1318 3916 
Q 1081 3391 1081 2328 
Q 1081 1269 1318 744 
Q 1556 219 2034 219 
z
M 2034 -91 
Q 1275 -91 848 546 
Q 422 1184 422 2328 
Q 422 3475 848 4112 
Q 1275 4750 2034 4750 
Q 2797 4750 3222 4112 
Q 3647 3475 3647 2328 
Q 3647 1184 3222 546 
Q 2797 -91 2034 -91 
z
" transform="scale(0.015625)"/>
        <path id="DejaVuSerif-2e" d="M 603 325 
Q 603 500 722 622 
Q 841 744 1019 744 
Q 1191 744 1312 622 
Q 1434 500 1434 325 
Q 1434 153 1312 31 
Q 1191 -91 1019 -91 
Q 841 -91 722 29 
Q 603 150 603 325 
z
" transform="scale(0.015625)"/>
       </defs>
       <use xlink:href="#DejaVuSerif-30"/>
       <use xlink:href="#DejaVuSerif-2e" x="63.623047"/>
       <use xlink:href="#DejaVuSerif-30" x="95.410156"/>
      </g>
     </g>
    </g>
    <g id="xtick_2">
     <g id="line2d_3">
      <g>
       <use xlink:href="#m422f622865" x="171.686052" y="269.268562" style="stroke: #000000; stroke-width: 0.8"/>
      </g>
     </g>
     <g id="line2d_4">
      <g>
       <use xlink:href="#m40cea29951" x="171.686052" y="47.508562" style="stroke: #000000; stroke-width: 0.8"/>
      </g>
     </g>
     <g id="text_2">
      <!-- 0.2 -->
      <g transform="translate(162.144177 285.386687) scale(0.12 -0.12)">
       <defs>
        <path id="DejaVuSerif-32" d="M 819 3553 
L 469 3553 
L 469 4384 
Q 803 4563 1142 4656 
Q 1481 4750 1806 4750 
Q 2534 4750 2956 4397 
Q 3378 4044 3378 3438 
Q 3378 2753 2422 1800 
Q 2347 1728 2309 1691 
L 1131 513 
L 3078 513 
L 3078 1088 
L 3444 1088 
L 3444 0 
L 434 0 
L 434 341 
L 1850 1753 
Q 2319 2222 2519 2614 
Q 2719 3006 2719 3438 
Q 2719 3909 2473 4175 
Q 2228 4441 1797 4441 
Q 1350 4441 1106 4219 
Q 863 3997 819 3553 
z
" transform="scale(0.015625)"/>
       </defs>
       <use xlink:href="#DejaVuSerif-30"/>
       <use xlink:href="#DejaVuSerif-2e" x="63.623047"/>
       <use xlink:href="#DejaVuSerif-32" x="95.410156"/>
      </g>
     </g>
    </g>
    <g id="xtick_3">
     <g id="line2d_5">
      <g>
       <use xlink:href="#m422f622865" x="232.814547" y="269.268562" style="stroke: #000000; stroke-width: 0.8"/>
      </g>
     </g>
     <g id="line2d_6">
      <g>
       <use xlink:href="#m40cea29951" x="232.814547" y="47.508562" style="stroke: #000000; stroke-width: 0.8"/>
      </g>
     </g>
     <g id="text_3">
      <!-- 0.4 -->
      <g transform="translate(223.272672 285.386687) scale(0.12 -0.12)">
       <defs>
        <path id="DejaVuSerif-34" d="M 2234 1581 
L 2234 4063 
L 641 1581 
L 2234 1581 
z
M 3609 0 
L 1484 0 
L 1484 331 
L 2234 331 
L 2234 1247 
L 197 1247 
L 197 1588 
L 2241 4750 
L 2859 4750 
L 2859 1581 
L 3750 1581 
L 3750 1247 
L 2859 1247 
L 2859 331 
L 3609 331 
L 3609 0 
z
" transform="scale(0.015625)"/>
       </defs>
       <use xlink:href="#DejaVuSerif-30"/>
       <use xlink:href="#DejaVuSerif-2e" x="63.623047"/>
       <use xlink:href="#DejaVuSerif-34" x="95.410156"/>
      </g>
     </g>
    </g>
    <g id="xtick_4">
     <g id="line2d_7">
      <g>
       <use xlink:href="#m422f622865" x="293.943042" y="269.268562" style="stroke: #000000; stroke-width: 0.8"/>
      </g>
     </g>
     <g id="line2d_8">
      <g>
       <use xlink:href="#m40cea29951" x="293.943042" y="47.508562" style="stroke: #000000; stroke-width: 0.8"/>
      </g>
     </g>
     <g id="text_4">
      <!-- 0.6 -->
      <g transform="translate(284.401167 285.386687) scale(0.12 -0.12)">
       <defs>
        <path id="DejaVuSerif-36" d="M 2094 219 
Q 2534 219 2771 542 
Q 3009 866 3009 1472 
Q 3009 2078 2771 2401 
Q 2534 2725 2094 2725 
Q 1647 2725 1412 2412 
Q 1178 2100 1178 1509 
Q 1178 888 1415 553 
Q 1653 219 2094 219 
z
M 1075 2569 
Q 1288 2803 1556 2918 
Q 1825 3034 2163 3034 
Q 2859 3034 3264 2615 
Q 3669 2197 3669 1472 
Q 3669 763 3233 336 
Q 2797 -91 2069 -91 
Q 1278 -91 853 498 
Q 428 1088 428 2181 
Q 428 3406 931 4078 
Q 1434 4750 2350 4750 
Q 2597 4750 2869 4703 
Q 3141 4656 3425 4563 
L 3425 3794 
L 3072 3794 
Q 3034 4109 2831 4275 
Q 2628 4441 2284 4441 
Q 1678 4441 1381 3981 
Q 1084 3522 1075 2569 
z
" transform="scale(0.015625)"/>
       </defs>
       <use xlink:href="#DejaVuSerif-30"/>
       <use xlink:href="#DejaVuSerif-2e" x="63.623047"/>
       <use xlink:href="#DejaVuSerif-36" x="95.410156"/>
      </g>
     </g>
    </g>
    <g id="xtick_5">
     <g id="line2d_9">
      <g>
       <use xlink:href="#m422f622865" x="355.071537" y="269.268562" style="stroke: #000000; stroke-width: 0.8"/>
      </g>
     </g>
     <g id="line2d_10">
      <g>
       <use xlink:href="#m40cea29951" x="355.071537" y="47.508562" style="stroke: #000000; stroke-width: 0.8"/>
      </g>
     </g>
     <g id="text_5">
      <!-- 0.8 -->
      <g transform="translate(345.529662 285.386687) scale(0.12 -0.12)">
       <defs>
        <path id="DejaVuSerif-38" d="M 2981 1275 
Q 2981 1775 2732 2051 
Q 2484 2328 2034 2328 
Q 1584 2328 1336 2051 
Q 1088 1775 1088 1275 
Q 1088 772 1336 495 
Q 1584 219 2034 219 
Q 2484 219 2732 495 
Q 2981 772 2981 1275 
z
M 2853 3541 
Q 2853 3966 2637 4203 
Q 2422 4441 2034 4441 
Q 1650 4441 1433 4203 
Q 1216 3966 1216 3541 
Q 1216 3113 1433 2875 
Q 1650 2638 2034 2638 
Q 2422 2638 2637 2875 
Q 2853 3113 2853 3541 
z
M 2516 2484 
Q 3047 2413 3344 2092 
Q 3641 1772 3641 1275 
Q 3641 619 3225 264 
Q 2809 -91 2034 -91 
Q 1263 -91 845 264 
Q 428 619 428 1275 
Q 428 1772 725 2092 
Q 1022 2413 1556 2484 
Q 1084 2569 832 2842 
Q 581 3116 581 3541 
Q 581 4103 968 4426 
Q 1356 4750 2034 4750 
Q 2713 4750 3100 4426 
Q 3488 4103 3488 3541 
Q 3488 3116 3236 2842 
Q 2984 2569 2516 2484 
z
" transform="scale(0.015625)"/>
       </defs>
       <use xlink:href="#DejaVuSerif-30"/>
       <use xlink:href="#DejaVuSerif-2e" x="63.623047"/>
       <use xlink:href="#DejaVuSerif-38" x="95.410156"/>
      </g>
     </g>
    </g>
    <g id="xtick_6">
     <g id="line2d_11">
      <g>
       <use xlink:href="#m422f622865" x="416.200032" y="269.268562" style="stroke: #000000; stroke-width: 0.8"/>
      </g>
     </g>
     <g id="line2d_12">
      <g>
       <use xlink:href="#m40cea29951" x="416.200032" y="47.508562" style="stroke: #000000; stroke-width: 0.8"/>
      </g>
     </g>
     <g id="text_6">
      <!-- 1.0 -->
      <g transform="translate(406.658157 285.386687) scale(0.12 -0.12)">
       <defs>
        <path id="DejaVuSerif-31" d="M 909 0 
L 909 331 
L 1722 331 
L 1722 4213 
L 781 3603 
L 781 4013 
L 1919 4750 
L 2350 4750 
L 2350 331 
L 3163 331 
L 3163 0 
L 909 0 
z
" transform="scale(0.015625)"/>
       </defs>
       <use xlink:href="#DejaVuSerif-31"/>
       <use xlink:href="#DejaVuSerif-2e" x="63.623047"/>
       <use xlink:href="#DejaVuSerif-30" x="95.410156"/>
      </g>
     </g>
    </g>
    <g id="text_7">
     <!-- $\phi/(2\pi)$ -->
     <g transform="translate(235.559375 305.562312) scale(0.18 -0.18)">
      <defs>
       <path id="DejaVuSans-Oblique-3d5" d="M 2991 4863 
L 2738 3572 
Q 3363 3572 3684 3094 
Q 4016 2606 3850 1747 
Q 3681 888 3159 400 
Q 2653 -78 2028 -78 
L 1784 -1331 
L 1213 -1331 
L 1456 -78 
Q 834 -78 509 400 
Q 178 888 347 1747 
Q 513 2606 1034 3094 
Q 1544 3572 2166 3572 
L 2419 4863 
L 2991 4863 
z
M 2128 434 
Q 2481 434 2784 756 
Q 3116 1116 3244 1747 
Q 3369 2372 3169 2738 
Q 2991 3059 2638 3059 
L 2128 434 
z
M 1556 434 
L 2066 3059 
Q 1716 3059 1413 2738 
Q 1072 2372 953 1747 
Q 834 1116 1028 756 
Q 1203 434 1556 434 
z
" transform="scale(0.015625)"/>
       <path id="DejaVuSans-2f" d="M 1625 4666 
L 2156 4666 
L 531 -594 
L 0 -594 
L 1625 4666 
z
" transform="scale(0.015625)"/>
       <path id="DejaVuSans-28" d="M 1984 4856 
Q 1566 4138 1362 3434 
Q 1159 2731 1159 2009 
Q 1159 1288 1364 580 
Q 1569 -128 1984 -844 
L 1484 -844 
Q 1016 -109 783 600 
Q 550 1309 550 2009 
Q 550 2706 781 3412 
Q 1013 4119 1484 4856 
L 1984 4856 
z
" transform="scale(0.015625)"/>
       <path id="DejaVuSans-32" d="M 1228 531 
L 3431 531 
L 3431 0 
L 469 0 
L 469 531 
Q 828 903 1448 1529 
Q 2069 2156 2228 2338 
Q 2531 2678 2651 2914 
Q 2772 3150 2772 3378 
Q 2772 3750 2511 3984 
Q 2250 4219 1831 4219 
Q 1534 4219 1204 4116 
Q 875 4013 500 3803 
L 500 4441 
Q 881 4594 1212 4672 
Q 1544 4750 1819 4750 
Q 2544 4750 2975 4387 
Q 3406 4025 3406 3419 
Q 3406 3131 3298 2873 
Q 3191 2616 2906 2266 
Q 2828 2175 2409 1742 
Q 1991 1309 1228 531 
z
" transform="scale(0.015625)"/>
       <path id="DejaVuSans-Oblique-3c0" d="M 584 3500 
L 3938 3500 
L 3825 2925 
L 3384 2925 
L 2966 775 
Q 2922 550 2981 450 
Q 3038 353 3209 353 
Q 3256 353 3325 363 
Q 3397 369 3419 372 
L 3338 -44 
Q 3222 -84 3103 -103 
Q 2981 -122 2866 -122 
Q 2491 -122 2388 81 
Q 2284 288 2391 838 
L 2797 2925 
L 1506 2925 
L 938 0 
L 350 0 
L 919 2925 
L 472 2925 
L 584 3500 
z
" transform="scale(0.015625)"/>
       <path id="DejaVuSans-29" d="M 513 4856 
L 1013 4856 
Q 1481 4119 1714 3412 
Q 1947 2706 1947 2009 
Q 1947 1309 1714 600 
Q 1481 -109 1013 -844 
L 513 -844 
Q 928 -128 1133 580 
Q 1338 1288 1338 2009 
Q 1338 2731 1133 3434 
Q 928 4138 513 4856 
z
" transform="scale(0.015625)"/>
      </defs>
      <use xlink:href="#DejaVuSans-Oblique-3d5" transform="translate(0 0.015625)"/>
      <use xlink:href="#DejaVuSans-2f" transform="translate(65.966797 0.015625)"/>
      <use xlink:href="#DejaVuSans-28" transform="translate(99.658203 0.015625)"/>
      <use xlink:href="#DejaVuSans-32" transform="translate(138.671875 0.015625)"/>
      <use xlink:href="#DejaVuSans-Oblique-3c0" transform="translate(202.294922 0.015625)"/>
      <use xlink:href="#DejaVuSans-29" transform="translate(262.5 0.015625)"/>
     </g>
    </g>
   </g>
   <g id="matplotlib.axis_2">
    <g id="ytick_1">
     <g id="line2d_13">
      <defs>
       <path id="m5ac22df1e6" d="M 0 0 
L -3.5 0 
" style="stroke: #000000; stroke-width: 0.8"/>
      </defs>
      <g>
       <use xlink:href="#m5ac22df1e6" x="95.339375" y="267.107843" style="stroke: #000000; stroke-width: 0.8"/>
      </g>
     </g>
     <g id="line2d_14">
      <defs>
       <path id="ma71a9cf2a7" d="M 0 0 
L 3.5 0 
" style="stroke: #000000; stroke-width: 0.8"/>
      </defs>
      <g>
       <use xlink:href="#ma71a9cf2a7" x="430.139375" y="267.107843" style="stroke: #000000; stroke-width: 0.8"/>
      </g>
     </g>
     <g id="text_8">
      <!-- −0.00015 -->
      <g transform="translate(28.66 271.666905) scale(0.12 -0.12)">
       <defs>
        <path id="DejaVuSerif-2212" d="M 678 2259 
L 4684 2259 
L 4684 1753 
L 678 1753 
L 678 2259 
z
" transform="scale(0.015625)"/>
        <path id="DejaVuSerif-35" d="M 3219 4666 
L 3219 4153 
L 1081 4153 
L 1081 2816 
Q 1244 2928 1461 2984 
Q 1678 3041 1947 3041 
Q 2703 3041 3140 2622 
Q 3578 2203 3578 1478 
Q 3578 738 3136 323 
Q 2694 -91 1894 -91 
Q 1572 -91 1234 -12 
Q 897 66 544 225 
L 544 1131 
L 897 1131 
Q 925 688 1179 453 
Q 1434 219 1894 219 
Q 2388 219 2653 544 
Q 2919 869 2919 1478 
Q 2919 2084 2655 2407 
Q 2391 2731 1894 2731 
Q 1613 2731 1398 2631 
Q 1184 2531 1019 2322 
L 750 2322 
L 750 4666 
L 3219 4666 
z
" transform="scale(0.015625)"/>
       </defs>
       <use xlink:href="#DejaVuSerif-2212"/>
       <use xlink:href="#DejaVuSerif-30" x="83.789062"/>
       <use xlink:href="#DejaVuSerif-2e" x="147.412109"/>
       <use xlink:href="#DejaVuSerif-30" x="179.199219"/>
       <use xlink:href="#DejaVuSerif-30" x="242.822266"/>
       <use xlink:href="#DejaVuSerif-30" x="306.445312"/>
       <use xlink:href="#DejaVuSerif-31" x="370.068359"/>
       <use xlink:href="#DejaVuSerif-35" x="433.691406"/>
      </g>
     </g>
    </g>
    <g id="ytick_2">
     <g id="line2d_15">
      <g>
       <use xlink:href="#m5ac22df1e6" x="95.339375" y="230.868082" style="stroke: #000000; stroke-width: 0.8"/>
      </g>
     </g>
     <g id="line2d_16">
      <g>
       <use xlink:href="#ma71a9cf2a7" x="430.139375" y="230.868082" style="stroke: #000000; stroke-width: 0.8"/>
      </g>
     </g>
     <g id="text_9">
      <!-- −0.00010 -->
      <g transform="translate(28.66 235.427144) scale(0.12 -0.12)">
       <use xlink:href="#DejaVuSerif-2212"/>
       <use xlink:href="#DejaVuSerif-30" x="83.789062"/>
       <use xlink:href="#DejaVuSerif-2e" x="147.412109"/>
       <use xlink:href="#DejaVuSerif-30" x="179.199219"/>
       <use xlink:href="#DejaVuSerif-30" x="242.822266"/>
       <use xlink:href="#DejaVuSerif-30" x="306.445312"/>
       <use xlink:href="#DejaVuSerif-31" x="370.068359"/>
       <use xlink:href="#DejaVuSerif-30" x="433.691406"/>
      </g>
     </g>
    </g>
    <g id="ytick_3">
     <g id="line2d_17">
      <g>
       <use xlink:href="#m5ac22df1e6" x="95.339375" y="194.628321" style="stroke: #000000; stroke-width: 0.8"/>
      </g>
     </g>
     <g id="line2d_18">
      <g>
       <use xlink:href="#ma71a9cf2a7" x="430.139375" y="194.628321" style="stroke: #000000; stroke-width: 0.8"/>
      </g>
     </g>
     <g id="text_10">
      <!-- −0.00005 -->
      <g transform="translate(28.66 199.187383) scale(0.12 -0.12)">
       <use xlink:href="#DejaVuSerif-2212"/>
       <use xlink:href="#DejaVuSerif-30" x="83.789062"/>
       <use xlink:href="#DejaVuSerif-2e" x="147.412109"/>
       <use xlink:href="#DejaVuSerif-30" x="179.199219"/>
       <use xlink:href="#DejaVuSerif-30" x="242.822266"/>
       <use xlink:href="#DejaVuSerif-30" x="306.445312"/>
       <use xlink:href="#DejaVuSerif-30" x="370.068359"/>
       <use xlink:href="#DejaVuSerif-35" x="433.691406"/>
      </g>
     </g>
    </g>
    <g id="ytick_4">
     <g id="line2d_19">
      <g>
       <use xlink:href="#m5ac22df1e6" x="95.339375" y="158.38856" style="stroke: #000000; stroke-width: 0.8"/>
      </g>
     </g>
     <g id="line2d_20">
      <g>
       <use xlink:href="#ma71a9cf2a7" x="430.139375" y="158.38856" style="stroke: #000000; stroke-width: 0.8"/>
      </g>
     </g>
     <g id="text_11">
      <!-- 0.00000 -->
      <g transform="translate(38.715625 162.947622) scale(0.12 -0.12)">
       <use xlink:href="#DejaVuSerif-30"/>
       <use xlink:href="#DejaVuSerif-2e" x="63.623047"/>
       <use xlink:href="#DejaVuSerif-30" x="95.410156"/>
       <use xlink:href="#DejaVuSerif-30" x="159.033203"/>
       <use xlink:href="#DejaVuSerif-30" x="222.65625"/>
       <use xlink:href="#DejaVuSerif-30" x="286.279297"/>
       <use xlink:href="#DejaVuSerif-30" x="349.902344"/>
      </g>
     </g>
    </g>
    <g id="ytick_5">
     <g id="line2d_21">
      <g>
       <use xlink:href="#m5ac22df1e6" x="95.339375" y="122.148799" style="stroke: #000000; stroke-width: 0.8"/>
      </g>
     </g>
     <g id="line2d_22">
      <g>
       <use xlink:href="#ma71a9cf2a7" x="430.139375" y="122.148799" style="stroke: #000000; stroke-width: 0.8"/>
      </g>
     </g>
     <g id="text_12">
      <!-- 0.00005 -->
      <g transform="translate(38.715625 126.707861) scale(0.12 -0.12)">
       <use xlink:href="#DejaVuSerif-30"/>
       <use xlink:href="#DejaVuSerif-2e" x="63.623047"/>
       <use xlink:href="#DejaVuSerif-30" x="95.410156"/>
       <use xlink:href="#DejaVuSerif-30" x="159.033203"/>
       <use xlink:href="#DejaVuSerif-30" x="222.65625"/>
       <use xlink:href="#DejaVuSerif-30" x="286.279297"/>
       <use xlink:href="#DejaVuSerif-35" x="349.902344"/>
      </g>
     </g>
    </g>
    <g id="ytick_6">
     <g id="line2d_23">
      <g>
       <use xlink:href="#m5ac22df1e6" x="95.339375" y="85.909038" style="stroke: #000000; stroke-width: 0.8"/>
      </g>
     </g>
     <g id="line2d_24">
      <g>
       <use xlink:href="#ma71a9cf2a7" x="430.139375" y="85.909038" style="stroke: #000000; stroke-width: 0.8"/>
      </g>
     </g>
     <g id="text_13">
      <!-- 0.00010 -->
      <g transform="translate(38.715625 90.468101) scale(0.12 -0.12)">
       <use xlink:href="#DejaVuSerif-30"/>
       <use xlink:href="#DejaVuSerif-2e" x="63.623047"/>
       <use xlink:href="#DejaVuSerif-30" x="95.410156"/>
       <use xlink:href="#DejaVuSerif-30" x="159.033203"/>
       <use xlink:href="#DejaVuSerif-30" x="222.65625"/>
       <use xlink:href="#DejaVuSerif-31" x="286.279297"/>
       <use xlink:href="#DejaVuSerif-30" x="349.902344"/>
      </g>
     </g>
    </g>
    <g id="ytick_7">
     <g id="line2d_25">
      <g>
       <use xlink:href="#m5ac22df1e6" x="95.339375" y="49.669277" style="stroke: #000000; stroke-width: 0.8"/>
      </g>
     </g>
     <g id="line2d_26">
      <g>
       <use xlink:href="#ma71a9cf2a7" x="430.139375" y="49.669277" style="stroke: #000000; stroke-width: 0.8"/>
      </g>
     </g>
     <g id="text_14">
      <!-- 0.00015 -->
      <g transform="translate(38.715625 54.22834) scale(0.12 -0.12)">
       <use xlink:href="#DejaVuSerif-30"/>
       <use xlink:href="#DejaVuSerif-2e" x="63.623047"/>
       <use xlink:href="#DejaVuSerif-30" x="95.410156"/>
       <use xlink:href="#DejaVuSerif-30" x="159.033203"/>
       <use xlink:href="#DejaVuSerif-30" x="222.65625"/>
       <use xlink:href="#DejaVuSerif-31" x="286.279297"/>
       <use xlink:href="#DejaVuSerif-35" x="349.902344"/>
      </g>
     </g>
    </g>
    <g id="text_15">
     <!-- $J_k(\phi)$ -->
     <g transform="translate(20.88 177.918562) rotate(-90) scale(0.18 -0.18)">
      <defs>
       <path id="DejaVuSans-Oblique-4a" d="M 1069 4666 
L 1703 4666 
L 856 325 
Q 691 -522 298 -901 
Q -94 -1281 -800 -1281 
L -1050 -1281 
L -947 -750 
L -750 -750 
Q -328 -750 -109 -509 
Q 109 -269 225 325 
L 1069 4666 
z
" transform="scale(0.015625)"/>
       <path id="DejaVuSans-Oblique-6b" d="M 1172 4863 
L 1747 4863 
L 1197 2028 
L 3169 3500 
L 3916 3500 
L 1716 1825 
L 3322 0 
L 2625 0 
L 1131 1709 
L 800 0 
L 225 0 
L 1172 4863 
z
" transform="scale(0.015625)"/>
      </defs>
      <use xlink:href="#DejaVuSans-Oblique-4a" transform="translate(0 0.015625)"/>
      <use xlink:href="#DejaVuSans-Oblique-6b" transform="translate(29.492188 -16.390625) scale(0.7)"/>
      <use xlink:href="#DejaVuSans-28" transform="translate(72.763672 0.015625)"/>
      <use xlink:href="#DejaVuSans-Oblique-3d5" transform="translate(111.777344 0.015625)"/>
      <use xlink:href="#DejaVuSans-29" transform="translate(177.744141 0.015625)"/>
     </g>
    </g>
   </g>
   <g id="line2d_27">
    <path d="M 110.557557 157.607129 
L 127.182461 137.456437 
L 136.134333 126.930785 
L 143.807366 118.220672 
L 150.20156 111.242228 
L 156.595754 104.563743 
L 162.989948 98.224663 
L 168.105303 93.422117 
L 173.220658 88.876719 
L 178.336014 84.603631 
L 183.451369 80.616376 
L 188.566724 76.926757 
L 193.682079 73.544781 
L 198.797435 70.478693 
L 203.91279 67.734932 
L 209.028145 65.318132 
L 212.864661 63.721937 
L 216.701178 62.311883 
L 220.537694 61.088025 
L 224.374211 60.049901 
L 228.210727 59.196527 
L 232.047244 58.52642 
L 235.88376 58.037672 
L 239.720276 57.727917 
L 243.556793 57.594416 
L 247.393309 57.634092 
L 251.229826 57.843698 
L 256.345181 58.383714 
L 260.181697 59.012632 
L 261.460536 59.433926 
L 264.018214 257.343199 
L 265.297053 257.764483 
L 269.133569 258.393414 
L 272.970085 258.826285 
L 276.806602 259.091881 
L 280.643118 259.188562 
L 284.479635 259.113144 
L 288.316151 258.862463 
L 292.152668 258.433659 
L 295.989184 257.824241 
L 299.8257 257.032138 
L 303.662217 256.055725 
L 307.498733 254.893868 
L 311.33525 253.545903 
L 315.171766 252.01171 
L 319.008283 250.291676 
L 324.123638 247.710934 
L 329.238993 244.805305 
L 334.354348 241.580362 
L 339.469703 238.043416 
L 344.585059 234.203627 
L 349.700414 230.071868 
L 354.815769 225.660832 
L 359.931124 220.984861 
L 366.325318 214.791832 
L 372.719513 208.244568 
L 379.113707 201.381171 
L 386.786739 192.786177 
L 395.738611 182.361058 
L 405.969322 170.081534 
L 414.921193 159.169986 
L 414.921193 159.169986 
" clip-path="url(#p0cc99b8848)" style="fill: none; stroke: #1f77b4; stroke-width: 1.5; stroke-linecap: square"/>
   </g>
   <g id="line2d_28">
    <path d="M 110.557557 157.664745 
L 127.182461 139.007507 
L 136.134333 129.276934 
L 143.807366 121.239384 
L 150.20156 114.813214 
L 156.595754 108.677983 
L 162.989948 102.871601 
L 168.105303 98.486602 
L 173.220658 94.35021 
L 178.336014 90.476802 
L 183.451369 86.87905 
L 188.566724 83.567902 
L 193.682079 80.552526 
L 198.797435 77.840263 
L 203.91279 75.4367 
L 209.028145 73.345603 
L 214.1435 71.568948 
L 217.980017 70.443101 
L 221.816533 69.493891 
L 225.65305 68.720417 
L 229.489566 68.121332 
L 233.326082 67.695021 
L 237.162599 67.439718 
L 240.999115 67.353997 
L 244.835632 67.437797 
L 248.672148 67.695782 
L 252.508665 68.150763 
L 255.066342 68.61086 
L 256.345181 68.927594 
L 257.62402 69.364745 
L 258.902859 70.084647 
L 260.181697 71.757076 
L 261.460536 79.939369 
L 264.018214 236.837753 
L 265.297053 245.020038 
L 266.575891 246.692472 
L 267.85473 247.412369 
L 269.133569 247.849529 
L 271.691247 248.417606 
L 275.527763 248.953875 
L 279.36428 249.273188 
L 283.200796 249.414093 
L 287.037312 249.384764 
L 290.873829 249.186122 
L 294.710345 248.817001 
L 298.546862 248.275701 
L 302.383378 247.560517 
L 306.219894 246.67002 
L 310.056411 245.603125 
L 313.892927 244.359214 
L 317.729444 242.93818 
L 322.844799 240.768698 
L 327.960154 238.287543 
L 333.075509 235.498915 
L 338.190865 232.40883 
L 343.30622 229.025098 
L 348.421575 225.357338 
L 353.53693 221.416932 
L 358.652286 217.216972 
L 363.767641 212.772259 
L 370.161835 206.897236 
L 376.556029 200.700671 
L 382.950223 194.221155 
L 390.623256 186.130868 
L 399.575127 176.355345 
L 412.363516 162.006658 
L 414.921193 159.11238 
L 414.921193 159.11238 
" clip-path="url(#p0cc99b8848)" style="fill: none; stroke: #ff7f0e; stroke-width: 1.5; stroke-linecap: square"/>
   </g>
   <g id="line2d_29">
    <path d="M 110.557557 157.857207 
L 127.182461 144.18721 
L 136.134333 137.109118 
L 143.807366 131.312815 
L 150.20156 126.724633 
L 156.595754 122.394712 
L 162.989948 118.355562 
L 168.105303 115.353277 
L 173.220658 112.568867 
L 178.336014 110.01383 
L 183.451369 107.697869 
L 188.566724 105.628953 
L 193.682079 103.8132 
L 198.797435 102.254872 
L 203.91279 100.956398 
L 209.028145 99.918286 
L 214.1435 99.13933 
L 219.258856 98.61649 
L 224.374211 98.345079 
L 229.489566 98.318827 
L 234.604921 98.530136 
L 239.720276 98.970406 
L 244.835632 99.631108 
L 249.950987 100.507966 
L 255.066342 101.628781 
L 257.62402 102.363036 
L 258.902859 102.876926 
L 260.181697 103.7904 
L 261.460536 107.60989 
L 264.018214 209.167226 
L 265.297053 212.986721 
L 266.575891 213.900193 
L 267.85473 214.414079 
L 270.412408 215.148344 
L 274.248924 216.014951 
L 279.36428 216.947136 
L 284.479635 217.661919 
L 289.59499 218.158035 
L 294.710345 218.427406 
L 299.8257 218.461316 
L 304.941056 218.251842 
L 310.056411 217.792359 
L 315.171766 217.077785 
L 320.287121 216.104651 
L 325.402477 214.871281 
L 330.517832 213.377756 
L 335.633187 211.626043 
L 340.748542 209.619911 
L 345.863898 207.365037 
L 350.979253 204.868919 
L 356.094608 202.140849 
L 361.209963 199.191857 
L 367.604157 195.214489 
L 373.998351 190.94022 
L 380.392545 186.400927 
L 388.065578 180.653531 
L 397.01745 173.617979 
L 408.526999 164.223696 
L 414.921193 158.919913 
L 414.921193 158.919913 
" clip-path="url(#p0cc99b8848)" style="fill: none; stroke: #2ca02c; stroke-width: 1.5; stroke-linecap: square"/>
   </g>
   <g id="line2d_30">
    <path d="M 110.557557 158.214654 
L 127.182461 153.790666 
L 137.413172 151.3012 
L 146.365043 149.375045 
L 154.038076 147.963591 
L 160.43227 146.983452 
L 166.826464 146.199772 
L 173.220658 145.626158 
L 179.614852 145.272546 
L 186.009047 145.145155 
L 192.403241 145.246241 
L 198.797435 145.57415 
L 205.191629 146.12335 
L 211.585823 146.884405 
L 217.980017 147.844236 
L 225.65305 149.234934 
L 233.326082 150.85343 
L 242.277954 152.975605 
L 253.787503 155.962655 
L 284.479635 164.117664 
L 293.431506 166.207617 
L 301.104539 167.790789 
L 308.777572 169.140008 
L 315.171766 170.061297 
L 321.56596 170.780896 
L 327.960154 171.286482 
L 334.354348 171.569354 
L 340.748542 171.624756 
L 347.142736 171.451813 
L 353.53693 171.053568 
L 359.931124 170.437026 
L 366.325318 169.61287 
L 373.998351 168.370143 
L 381.671384 166.880072 
L 390.623256 164.878688 
L 400.853966 162.328011 
L 414.921193 158.56246 
L 414.921193 158.56246 
" clip-path="url(#p0cc99b8848)" style="fill: none; stroke: #d62728; stroke-width: 1.5; stroke-linecap: square"/>
   </g>
   <g id="line2d_31">
    <path d="M 110.557557 158.266757 
L 129.740139 154.716062 
L 141.249688 152.823777 
L 150.20156 151.561316 
L 159.153432 150.529221 
L 166.826464 149.854598 
L 174.499497 149.391753 
L 182.17253 149.152229 
L 189.845563 149.142014 
L 197.518596 149.3614 
L 205.191629 149.804996 
L 212.864661 150.461814 
L 221.816533 151.475599 
L 230.768405 152.723035 
L 240.999115 154.380417 
L 253.787503 156.691461 
L 287.037312 162.830659 
L 297.268023 164.432013 
L 306.219894 165.616675 
L 315.171766 166.55704 
L 322.844799 167.144342 
L 330.517832 167.514142 
L 338.190865 167.657317 
L 345.863898 167.570344 
L 353.53693 167.255439 
L 361.209963 166.720455 
L 368.882996 165.978709 
L 377.834868 164.876879 
L 386.786739 163.556131 
L 398.296289 161.608816 
L 413.642354 158.753884 
L 414.921193 158.510364 
L 414.921193 158.510364 
" clip-path="url(#p0cc99b8848)" style="fill: none; stroke: #9467bd; stroke-width: 1.5; stroke-linecap: square"/>
   </g>
   <g id="line2d_32">
    <path d="M 110.557557 158.299543 
L 132.297817 155.381523 
L 145.086205 153.907679 
L 155.316915 152.945998 
L 165.547626 152.224065 
L 174.499497 151.81438 
L 183.451369 151.626668 
L 192.403241 151.667303 
L 201.355112 151.934929 
L 210.306984 152.420536 
L 220.537694 153.221105 
L 230.768405 154.249504 
L 242.277954 155.622003 
L 258.902859 157.85475 
L 285.758474 161.476306 
L 297.268023 162.803748 
L 307.498733 163.779073 
L 317.729444 164.516737 
L 326.681315 164.941436 
L 335.633187 165.144784 
L 344.585059 165.119975 
L 353.53693 164.86786 
L 362.488802 164.396981 
L 372.719513 163.611695 
L 382.950223 162.596325 
L 394.459772 161.235045 
L 411.084677 159.010826 
L 414.921193 158.47757 
L 414.921193 158.47757 
" clip-path="url(#p0cc99b8848)" style="fill: none; stroke: #8c564b; stroke-width: 1.5; stroke-linecap: square"/>
   </g>
   <g id="line2d_33">
    <path d="M 110.557557 158.321523 
L 133.576655 156.004354 
L 147.643882 154.817326 
L 159.153432 154.062957 
L 169.384142 153.593681 
L 179.614852 153.335696 
L 189.845563 153.300368 
L 200.076273 153.489298 
L 210.306984 153.894156 
L 221.816533 154.585166 
L 234.604921 155.599502 
L 249.950987 157.062646 
L 294.710345 161.505515 
L 307.498733 162.44801 
L 319.008283 163.059166 
L 329.238993 163.384637 
L 339.469703 163.489917 
L 349.700414 163.370374 
L 359.931124 163.031307 
L 371.440674 162.40643 
L 382.950223 161.557719 
L 397.01745 160.286253 
L 414.921193 158.455613 
L 414.921193 158.455613 
" clip-path="url(#p0cc99b8848)" style="fill: none; stroke: #e377c2; stroke-width: 1.5; stroke-linecap: square"/>
   </g>
   <g id="line2d_34">
    <path d="M 110.557557 158.336904 
L 136.134333 156.371856 
L 151.480399 155.424963 
L 164.268787 154.856148 
L 175.778336 154.550946 
L 187.287885 154.459564 
L 198.797435 154.587128 
L 210.306984 154.926518 
L 223.095372 155.528698 
L 237.162599 156.416103 
L 256.345181 157.873452 
L 290.873829 160.536932 
L 304.941056 161.386111 
L 317.729444 161.943534 
L 329.238993 162.237086 
L 340.748542 162.316179 
L 352.258092 162.176415 
L 363.767641 161.825609 
L 376.556029 161.21244 
L 390.623256 160.315908 
L 409.805838 158.852345 
L 414.921193 158.440209 
L 414.921193 158.440209 
" clip-path="url(#p0cc99b8848)" style="fill: none; stroke: #7f7f7f; stroke-width: 1.5; stroke-linecap: square"/>
   </g>
   <g id="line2d_35">
    <path d="M 110.557557 158.348072 
L 138.692011 156.670905 
L 155.316915 155.913249 
L 169.384142 155.493153 
L 182.17253 155.319347 
L 194.960918 155.356442 
L 207.749306 155.601902 
L 221.816533 156.092036 
L 238.441438 156.912983 
L 261.460536 158.307583 
L 292.152668 160.139819 
L 308.777572 160.887909 
L 322.844799 161.29763 
L 335.633187 161.460996 
L 348.421575 161.413219 
L 361.209963 161.157596 
L 375.27719 160.657747 
L 391.902095 159.828327 
L 414.921193 158.429045 
L 414.921193 158.429045 
" clip-path="url(#p0cc99b8848)" style="fill: none; stroke: #bcbd22; stroke-width: 1.5; stroke-linecap: square"/>
   </g>
   <g id="line2d_36">
    <path d="M 110.557557 158.35637 
L 141.249688 156.918051 
L 159.153432 156.31193 
L 174.499497 156.011652 
L 189.845563 155.945967 
L 205.191629 156.121377 
L 220.537694 156.520559 
L 238.441438 157.2155 
L 265.297053 158.517267 
L 294.710345 159.884759 
L 312.614089 160.482144 
L 327.960154 160.77305 
L 343.30622 160.828601 
L 358.652286 160.64332 
L 373.998351 160.235494 
L 391.902095 159.533192 
L 414.921193 158.420748 
L 414.921193 158.420748 
" clip-path="url(#p0cc99b8848)" style="fill: none; stroke: #17becf; stroke-width: 1.5; stroke-linecap: square"/>
   </g>
   <g id="line2d_37">
    <path d="M 110.557557 158.362661 
L 143.807366 157.124458 
L 162.989948 156.640938 
L 179.614852 156.437234 
L 196.239757 156.459224 
L 212.864661 156.704396 
L 232.047244 157.226371 
L 257.62402 158.181772 
L 297.268023 159.672464 
L 316.450605 160.148025 
L 333.075509 160.343302 
L 349.700414 160.31246 
L 366.325318 160.059097 
L 385.507901 159.529697 
L 411.084677 158.569578 
L 414.921193 158.414457 
L 414.921193 158.414457 
" clip-path="url(#p0cc99b8848)" style="fill: none; stroke: #1f77b4; stroke-width: 1.5; stroke-linecap: square"/>
   </g>
   <g id="line2d_38">
    <path d="M 110.557557 158.367512 
L 146.365043 157.29809 
L 166.826464 156.914449 
L 184.730208 156.788348 
L 202.633951 156.876561 
L 221.816533 157.194971 
L 244.835632 157.81249 
L 308.777572 159.687576 
L 327.960154 159.947467 
L 345.863898 159.974416 
L 363.767641 159.788936 
L 384.229062 159.349945 
L 412.363516 158.493714 
L 414.921193 158.409597 
L 414.921193 158.409597 
" clip-path="url(#p0cc99b8848)" style="fill: none; stroke: #ff7f0e; stroke-width: 1.5; stroke-linecap: square"/>
   </g>
   <g id="line2d_39">
    <path d="M 110.557557 158.371301 
L 148.922721 157.444956 
L 170.662981 157.143005 
L 191.124402 157.081872 
L 211.585823 157.248535 
L 234.604921 157.670753 
L 270.412408 158.594816 
L 302.383378 159.344098 
L 324.123638 159.639479 
L 344.585059 159.693439 
L 365.04648 159.519907 
L 388.065578 159.091843 
L 414.921193 158.405824 
L 414.921193 158.405824 
" clip-path="url(#p0cc99b8848)" style="fill: none; stroke: #2ca02c; stroke-width: 1.5; stroke-linecap: square"/>
   </g>
   <g id="line2d_40">
    <path d="M 110.557557 158.374297 
L 151.480399 157.56969 
L 175.778336 157.328222 
L 197.518596 157.331385 
L 220.537694 157.560385 
L 248.672148 158.078934 
L 310.056411 159.285865 
L 333.075509 159.465877 
L 354.815769 159.418508 
L 377.834868 159.148711 
L 408.526999 158.545001 
L 414.921193 158.402828 
L 414.921193 158.402828 
" clip-path="url(#p0cc99b8848)" style="fill: none; stroke: #d62728; stroke-width: 1.5; stroke-linecap: square"/>
   </g>
   <g id="line2d_41">
    <path d="M 110.557557 158.376665 
L 154.038076 157.675983 
L 179.614852 157.492471 
L 203.91279 157.542335 
L 230.768405 157.835852 
L 271.691247 158.554105 
L 308.777572 159.122574 
L 334.354348 159.288855 
L 358.652286 159.221511 
L 385.507901 158.912601 
L 414.921193 158.40046 
L 414.921193 158.40046 
" clip-path="url(#p0cc99b8848)" style="fill: none; stroke: #9467bd; stroke-width: 1.5; stroke-linecap: square"/>
   </g>
   <g id="line2d_42">
    <path d="M 110.557557 158.378585 
L 156.595754 157.766802 
L 184.730208 157.629758 
L 211.585823 157.729394 
L 242.277954 158.078545 
L 320.287121 159.091409 
L 347.142736 159.137551 
L 373.998351 158.961144 
L 409.805838 158.478155 
L 414.921193 158.398537 
L 414.921193 158.398537 
" clip-path="url(#p0cc99b8848)" style="fill: none; stroke: #8c564b; stroke-width: 1.5; stroke-linecap: square"/>
   </g>
   <g id="line2d_43">
    <path d="M 110.557557 158.380125 
L 159.153432 157.84463 
L 188.566724 157.74777 
L 217.980017 157.878164 
L 255.066342 158.28779 
L 313.892927 158.945476 
L 343.30622 159.027681 
L 372.719513 158.883243 
L 411.084677 158.447503 
L 414.921193 158.396995 
L 414.921193 158.396995 
" clip-path="url(#p0cc99b8848)" style="fill: none; stroke: #e377c2; stroke-width: 1.5; stroke-linecap: square"/>
   </g>
   <g id="line2d_44">
    <path d="M 110.557557 158.381393 
L 162.989948 157.904654 
L 194.960918 157.851636 
L 228.210727 158.033068 
L 287.037312 158.649839 
L 324.123638 158.908239 
L 354.815769 158.906017 
L 389.344417 158.668518 
L 414.921193 158.395735 
L 414.921193 158.395735 
" clip-path="url(#p0cc99b8848)" style="fill: none; stroke: #7f7f7f; stroke-width: 1.5; stroke-linecap: square"/>
   </g>
   <g id="line2d_45">
    <path d="M 110.557557 158.382427 
L 165.547626 157.963712 
L 200.076273 157.940282 
L 237.162599 158.154281 
L 333.075509 158.851723 
L 367.604157 158.77775 
L 409.805838 158.443653 
L 414.921193 158.394693 
L 414.921193 158.394693 
" clip-path="url(#p0cc99b8848)" style="fill: none; stroke: #bcbd22; stroke-width: 1.5; stroke-linecap: square"/>
   </g>
   <g id="line2d_46">
    <path d="M 110.557557 158.383284 
L 168.105303 158.014555 
L 205.191629 158.016519 
L 246.11447 158.253867 
L 326.681315 158.77731 
L 363.767641 158.740065 
L 408.526999 158.446469 
L 414.921193 158.393847 
L 414.921193 158.393847 
" clip-path="url(#p0cc99b8848)" style="fill: none; stroke: #17becf; stroke-width: 1.5; stroke-linecap: square"/>
   </g>
   <g id="line2d_47">
    <path d="M 110.557557 158.38398 
L 171.94182 158.055639 
L 211.585823 158.086397 
L 260.181697 158.370268 
L 324.123638 158.720123 
L 363.767641 158.692977 
L 412.363516 158.411416 
L 414.921193 158.393135 
L 414.921193 158.393135 
" clip-path="url(#p0cc99b8848)" style="fill: none; stroke: #1f77b4; stroke-width: 1.5; stroke-linecap: square"/>
   </g>
   <g id="line2d_48">
    <path d="M 110.557557 158.384573 
L 174.499497 158.094336 
L 216.701178 158.142608 
L 276.806602 158.47501 
L 330.517832 158.686947 
L 372.719513 158.622343 
L 414.921193 158.392549 
L 414.921193 158.392549 
" clip-path="url(#p0cc99b8848)" style="fill: none; stroke: #ff7f0e; stroke-width: 1.5; stroke-linecap: square"/>
   </g>
   <g id="line2d_49">
    <path d="M 110.557557 158.385074 
L 177.057175 158.127821 
L 221.816533 158.1906 
L 366.325318 158.613734 
L 414.921193 158.392054 
L 414.921193 158.392054 
" clip-path="url(#p0cc99b8848)" style="fill: none; stroke: #2ca02c; stroke-width: 1.5; stroke-linecap: square"/>
   </g>
   <g id="line2d_50">
    <path d="M 110.557557 158.385496 
L 180.893691 158.156127 
L 229.489566 158.240844 
L 356.094608 158.608415 
L 412.363516 158.403922 
L 414.921193 158.391632 
L 414.921193 158.391632 
" clip-path="url(#p0cc99b8848)" style="fill: none; stroke: #d62728; stroke-width: 1.5; stroke-linecap: square"/>
   </g>
   <g id="line2d_51">
    <path d="M 110.557557 158.385841 
L 183.451369 158.181767 
L 235.88376 158.279916 
L 350.979253 158.589618 
L 408.526999 158.418408 
L 414.921193 158.391278 
L 414.921193 158.391278 
" clip-path="url(#p0cc99b8848)" style="fill: none; stroke: #9467bd; stroke-width: 1.5; stroke-linecap: square"/>
   </g>
   <g id="line2d_52">
    <path d="M 110.557557 158.386139 
L 187.287885 158.204153 
L 243.556793 158.317694 
L 345.863898 158.57125 
L 404.690483 158.429438 
L 414.921193 158.390986 
L 414.921193 158.390986 
" clip-path="url(#p0cc99b8848)" style="fill: none; stroke: #8c564b; stroke-width: 1.5; stroke-linecap: square"/>
   </g>
   <g id="line2d_53">
    <path d="M 110.557557 158.386392 
L 189.845563 158.223882 
L 251.229826 158.349865 
L 345.863898 158.552088 
L 408.526999 158.412344 
L 414.921193 158.390722 
L 414.921193 158.390722 
" clip-path="url(#p0cc99b8848)" style="fill: none; stroke: #e377c2; stroke-width: 1.5; stroke-linecap: square"/>
   </g>
   <g id="line2d_54">
    <path d="M 110.557557 158.386614 
L 193.682079 158.241691 
L 261.460536 158.384657 
L 347.142736 158.535115 
L 414.921193 158.390508 
L 414.921193 158.390508 
" clip-path="url(#p0cc99b8848)" style="fill: none; stroke: #7f7f7f; stroke-width: 1.5; stroke-linecap: square"/>
   </g>
   <g id="line2d_55">
    <path d="M 110.557557 158.386798 
L 196.239757 158.256979 
L 270.412408 158.409665 
L 350.979253 158.51897 
L 414.921193 158.390332 
L 414.921193 158.390332 
" clip-path="url(#p0cc99b8848)" style="fill: none; stroke: #bcbd22; stroke-width: 1.5; stroke-linecap: square"/>
   </g>
   <g id="line2d_56">
    <path d="M 110.557557 158.386959 
L 200.076273 158.271257 
L 285.758474 158.44423 
L 359.931124 158.499735 
L 414.921193 158.390163 
L 414.921193 158.390163 
" clip-path="url(#p0cc99b8848)" style="fill: none; stroke: #17becf; stroke-width: 1.5; stroke-linecap: square"/>
   </g>
   <g id="line2d_57">
    <path d="M 110.557557 158.387091 
L 203.91279 158.284177 
L 414.921193 158.390023 
L 414.921193 158.390023 
" clip-path="url(#p0cc99b8848)" style="fill: none; stroke: #1f77b4; stroke-width: 1.5; stroke-linecap: square"/>
   </g>
   <g id="line2d_58">
    <path d="M 110.557557 158.387205 
L 206.470467 158.294748 
L 414.921193 158.389907 
L 414.921193 158.389907 
" clip-path="url(#p0cc99b8848)" style="fill: none; stroke: #ff7f0e; stroke-width: 1.5; stroke-linecap: square"/>
   </g>
   <g id="line2d_59">
    <path d="M 110.557557 158.387321 
L 209.028145 158.304114 
L 414.921193 158.389804 
L 414.921193 158.389804 
" clip-path="url(#p0cc99b8848)" style="fill: none; stroke: #2ca02c; stroke-width: 1.5; stroke-linecap: square"/>
   </g>
   <g id="line2d_60">
    <path d="M 110.557557 158.387418 
L 211.585823 158.312441 
L 414.921193 158.38972 
L 414.921193 158.38972 
" clip-path="url(#p0cc99b8848)" style="fill: none; stroke: #d62728; stroke-width: 1.5; stroke-linecap: square"/>
   </g>
   <g id="line2d_61">
    <path d="M 110.557557 158.387484 
L 215.422339 158.321063 
L 409.805838 158.398203 
L 414.921193 158.389636 
L 414.921193 158.389636 
" clip-path="url(#p0cc99b8848)" style="fill: none; stroke: #9467bd; stroke-width: 1.5; stroke-linecap: square"/>
   </g>
   <g id="line2d_62">
    <path d="M 110.557557 158.387553 
L 217.980017 158.327719 
L 407.24816 158.401562 
L 414.921193 158.38957 
L 414.921193 158.38957 
" clip-path="url(#p0cc99b8848)" style="fill: none; stroke: #8c564b; stroke-width: 1.5; stroke-linecap: square"/>
   </g>
   <g id="line2d_63">
    <path d="M 110.557557 158.387608 
L 220.537694 158.333694 
L 404.690483 158.404502 
L 414.921193 158.389504 
L 414.921193 158.389504 
" clip-path="url(#p0cc99b8848)" style="fill: none; stroke: #e377c2; stroke-width: 1.5; stroke-linecap: square"/>
   </g>
   <g id="line2d_64">
    <path d="M 110.557557 158.387669 
L 223.095372 158.339099 
L 403.411644 158.405356 
L 414.921193 158.389456 
L 414.921193 158.389456 
" clip-path="url(#p0cc99b8848)" style="fill: none; stroke: #7f7f7f; stroke-width: 1.5; stroke-linecap: square"/>
   </g>
   <g id="line2d_65">
    <path d="M 110.557557 158.387706 
L 226.931888 158.345227 
L 400.853966 158.407782 
L 414.921193 158.389409 
L 414.921193 158.389409 
" clip-path="url(#p0cc99b8848)" style="fill: none; stroke: #bcbd22; stroke-width: 1.5; stroke-linecap: square"/>
   </g>
   <g id="line2d_66">
    <path d="M 110.557557 158.387748 
L 228.210727 158.348449 
L 402.132805 158.40534 
L 414.921193 158.389372 
L 414.921193 158.389372 
" clip-path="url(#p0cc99b8848)" style="fill: none; stroke: #17becf; stroke-width: 1.5; stroke-linecap: square"/>
   </g>
   <g id="line2d_67">
    <path d="M 110.557557 158.3878 
L 229.489566 158.351307 
L 402.132805 158.404639 
L 414.921193 158.38934 
L 414.921193 158.38934 
" clip-path="url(#p0cc99b8848)" style="fill: none; stroke: #1f77b4; stroke-width: 1.5; stroke-linecap: square"/>
   </g>
   <g id="line2d_68">
    <path d="M 110.557557 158.387816 
L 232.047244 158.355062 
L 400.853966 158.405472 
L 414.921193 158.389309 
L 414.921193 158.389309 
" clip-path="url(#p0cc99b8848)" style="fill: none; stroke: #ff7f0e; stroke-width: 1.5; stroke-linecap: square"/>
   </g>
   <g id="line2d_69">
    <path d="M 110.557557 158.387848 
L 233.326082 158.357346 
L 400.853966 158.404903 
L 414.921193 158.389277 
L 414.921193 158.389277 
" clip-path="url(#p0cc99b8848)" style="fill: none; stroke: #2ca02c; stroke-width: 1.5; stroke-linecap: square"/>
   </g>
   <g id="line2d_70">
    <path d="M 110.557557 158.387864 
L 234.604921 158.359402 
L 400.853966 158.404439 
L 414.921193 158.389256 
L 414.921193 158.389256 
" clip-path="url(#p0cc99b8848)" style="fill: none; stroke: #d62728; stroke-width: 1.5; stroke-linecap: square"/>
   </g>
   <g id="line2d_71">
    <path d="M 110.557557 158.38788 
L 237.162599 158.362435 
L 399.575127 158.405361 
L 414.921193 158.389251 
L 414.921193 158.389251 
" clip-path="url(#p0cc99b8848)" style="fill: none; stroke: #9467bd; stroke-width: 1.5; stroke-linecap: square"/>
   </g>
   <g id="line2d_72">
    <path d="M 110.557557 158.38789 
L 238.441438 158.364122 
L 399.575127 158.405019 
L 414.921193 158.389235 
L 414.921193 158.389235 
" clip-path="url(#p0cc99b8848)" style="fill: none; stroke: #8c564b; stroke-width: 1.5; stroke-linecap: square"/>
   </g>
   <g id="line2d_73">
    <path d="M 110.557557 158.387901 
L 239.720276 158.365673 
L 399.575127 158.404771 
L 414.921193 158.389219 
L 414.921193 158.389219 
" clip-path="url(#p0cc99b8848)" style="fill: none; stroke: #e377c2; stroke-width: 1.5; stroke-linecap: square"/>
   </g>
   <g id="line2d_74">
    <path d="M 110.557557 158.387901 
L 239.720276 158.36592 
L 399.575127 158.404592 
L 414.921193 158.389214 
L 414.921193 158.389214 
" clip-path="url(#p0cc99b8848)" style="fill: none; stroke: #7f7f7f; stroke-width: 1.5; stroke-linecap: square"/>
   </g>
   <g id="line2d_75">
    <path d="M 110.557557 158.387916 
L 239.720276 158.366073 
L 400.853966 158.403247 
L 414.921193 158.389214 
L 414.921193 158.389214 
" clip-path="url(#p0cc99b8848)" style="fill: none; stroke: #bcbd22; stroke-width: 1.5; stroke-linecap: square"/>
   </g>
   <g id="line2d_76">
    <path d="M 110.557557 158.387906 
L 240.999115 158.367286 
L 400.853966 158.403215 
L 414.921193 158.389209 
L 414.921193 158.389209 
" clip-path="url(#p0cc99b8848)" style="fill: none; stroke: #17becf; stroke-width: 1.5; stroke-linecap: square"/>
   </g>
   <g id="patch_3">
    <path d="M 95.339375 269.268562 
L 95.339375 47.508562 
" style="fill: none; stroke: #000000; stroke-width: 0.8; stroke-linejoin: miter; stroke-linecap: square"/>
   </g>
   <g id="patch_4">
    <path d="M 430.139375 269.268562 
L 430.139375 47.508562 
" style="fill: none; stroke: #000000; stroke-width: 0.8; stroke-linejoin: miter; stroke-linecap: square"/>
   </g>
   <g id="patch_5">
    <path d="M 95.339375 269.268562 
L 430.139375 269.268562 
" style="fill: none; stroke: #000000; stroke-width: 0.8; stroke-linejoin: miter; stroke-linecap: square"/>
   </g>
   <g id="patch_6">
    <path d="M 95.339375 47.508562 
L 430.139375 47.508562 
" style="fill: none; stroke: #000000; stroke-width: 0.8; stroke-linejoin: miter; stroke-linecap: square"/>
   </g>
   <g id="text_16">
    <!-- Josephson current for given k -->
    <g transform="translate(127.401875 20.877187) scale(0.18 -0.18)">
     <defs>
      <path id="DejaVuSerif-4a" d="M -538 -1119 
L -538 -384 
L -181 -384 
Q -172 -694 -34 -845 
Q 103 -997 378 -997 
Q 750 -997 897 -762 
Q 1044 -528 1044 153 
L 1044 4331 
L 319 4331 
L 319 4666 
L 2272 4666 
L 2272 4331 
L 1678 4331 
L 1678 128 
Q 1678 -644 1368 -987 
Q 1059 -1331 372 -1331 
Q 150 -1331 -79 -1278 
Q -309 -1225 -538 -1119 
z
" transform="scale(0.015625)"/>
      <path id="DejaVuSerif-6f" d="M 1925 219 
Q 2388 219 2623 584 
Q 2859 950 2859 1663 
Q 2859 2375 2623 2739 
Q 2388 3103 1925 3103 
Q 1463 3103 1227 2739 
Q 991 2375 991 1663 
Q 991 950 1228 584 
Q 1466 219 1925 219 
z
M 1925 -91 
Q 1200 -91 759 389 
Q 319 869 319 1663 
Q 319 2456 758 2934 
Q 1197 3413 1925 3413 
Q 2653 3413 3092 2934 
Q 3531 2456 3531 1663 
Q 3531 869 3092 389 
Q 2653 -91 1925 -91 
z
" transform="scale(0.015625)"/>
      <path id="DejaVuSerif-73" d="M 359 184 
L 359 959 
L 691 959 
Q 703 588 923 403 
Q 1144 219 1575 219 
Q 1963 219 2166 364 
Q 2369 509 2369 788 
Q 2369 1006 2220 1140 
Q 2072 1275 1594 1428 
L 1178 1569 
Q 750 1706 558 1912 
Q 366 2119 366 2438 
Q 366 2894 700 3153 
Q 1034 3413 1625 3413 
Q 1888 3413 2178 3344 
Q 2469 3275 2778 3144 
L 2778 2419 
L 2447 2419 
Q 2434 2741 2221 2922 
Q 2009 3103 1644 3103 
Q 1281 3103 1095 2975 
Q 909 2847 909 2591 
Q 909 2381 1050 2254 
Q 1191 2128 1613 1997 
L 2069 1856 
Q 2541 1709 2748 1489 
Q 2956 1269 2956 922 
Q 2956 450 2595 179 
Q 2234 -91 1600 -91 
Q 1278 -91 972 -22 
Q 666 47 359 184 
z
" transform="scale(0.015625)"/>
      <path id="DejaVuSerif-65" d="M 3469 1600 
L 991 1600 
L 991 1575 
Q 991 903 1244 561 
Q 1497 219 1991 219 
Q 2369 219 2611 417 
Q 2853 616 2950 1006 
L 3413 1006 
Q 3275 459 2904 184 
Q 2534 -91 1931 -91 
Q 1203 -91 761 389 
Q 319 869 319 1663 
Q 319 2450 753 2931 
Q 1188 3413 1894 3413 
Q 2647 3413 3050 2948 
Q 3453 2484 3469 1600 
z
M 2791 1931 
Q 2772 2513 2545 2808 
Q 2319 3103 1894 3103 
Q 1497 3103 1269 2806 
Q 1041 2509 991 1931 
L 2791 1931 
z
" transform="scale(0.015625)"/>
      <path id="DejaVuSerif-70" d="M 1313 1825 
L 1313 1497 
Q 1313 897 1542 583 
Q 1772 269 2209 269 
Q 2650 269 2876 622 
Q 3103 975 3103 1663 
Q 3103 2353 2876 2703 
Q 2650 3053 2209 3053 
Q 1772 3053 1542 2737 
Q 1313 2422 1313 1825 
z
M 738 2988 
L 184 2988 
L 184 3322 
L 1313 3322 
L 1313 2803 
Q 1481 3116 1742 3264 
Q 2003 3413 2388 3413 
Q 3000 3413 3387 2928 
Q 3775 2444 3775 1663 
Q 3775 881 3387 395 
Q 3000 -91 2388 -91 
Q 2003 -91 1742 57 
Q 1481 206 1313 519 
L 1313 -997 
L 1856 -997 
L 1856 -1331 
L 184 -1331 
L 184 -997 
L 738 -997 
L 738 2988 
z
" transform="scale(0.015625)"/>
      <path id="DejaVuSerif-68" d="M 263 0 
L 263 331 
L 781 331 
L 781 4531 
L 231 4531 
L 231 4863 
L 1356 4863 
L 1356 2731 
Q 1516 3069 1770 3241 
Q 2025 3413 2363 3413 
Q 2913 3413 3172 3097 
Q 3431 2781 3431 2113 
L 3431 331 
L 3944 331 
L 3944 0 
L 2356 0 
L 2356 331 
L 2853 331 
L 2853 1931 
Q 2853 2541 2704 2764 
Q 2556 2988 2175 2988 
Q 1775 2988 1565 2697 
Q 1356 2406 1356 1850 
L 1356 331 
L 1856 331 
L 1856 0 
L 263 0 
z
" transform="scale(0.015625)"/>
      <path id="DejaVuSerif-6e" d="M 263 0 
L 263 331 
L 781 331 
L 781 2988 
L 231 2988 
L 231 3322 
L 1356 3322 
L 1356 2731 
Q 1516 3069 1770 3241 
Q 2025 3413 2363 3413 
Q 2913 3413 3172 3097 
Q 3431 2781 3431 2113 
L 3431 331 
L 3944 331 
L 3944 0 
L 2356 0 
L 2356 331 
L 2853 331 
L 2853 1931 
Q 2853 2541 2703 2767 
Q 2553 2994 2175 2994 
Q 1775 2994 1565 2701 
Q 1356 2409 1356 1850 
L 1356 331 
L 1856 331 
L 1856 0 
L 263 0 
z
" transform="scale(0.015625)"/>
      <path id="DejaVuSerif-20" transform="scale(0.015625)"/>
      <path id="DejaVuSerif-63" d="M 3291 997 
Q 3169 466 2822 187 
Q 2475 -91 1925 -91 
Q 1200 -91 759 389 
Q 319 869 319 1663 
Q 319 2459 759 2936 
Q 1200 3413 1925 3413 
Q 2241 3413 2553 3339 
Q 2866 3266 3181 3116 
L 3181 2266 
L 2847 2266 
Q 2781 2703 2561 2903 
Q 2341 3103 1931 3103 
Q 1466 3103 1228 2742 
Q 991 2381 991 1663 
Q 991 944 1227 581 
Q 1463 219 1931 219 
Q 2303 219 2525 412 
Q 2747 606 2828 997 
L 3291 997 
z
" transform="scale(0.015625)"/>
      <path id="DejaVuSerif-75" d="M 2266 3322 
L 3341 3322 
L 3341 331 
L 3884 331 
L 3884 0 
L 2766 0 
L 2766 588 
Q 2606 256 2353 82 
Q 2100 -91 1766 -91 
Q 1213 -91 952 223 
Q 691 538 691 1209 
L 691 2988 
L 172 2988 
L 172 3322 
L 1269 3322 
L 1269 1388 
Q 1269 781 1417 556 
Q 1566 331 1947 331 
Q 2347 331 2556 625 
Q 2766 919 2766 1478 
L 2766 2988 
L 2266 2988 
L 2266 3322 
z
" transform="scale(0.015625)"/>
      <path id="DejaVuSerif-72" d="M 3059 3328 
L 3059 2497 
L 2728 2497 
Q 2713 2744 2591 2866 
Q 2469 2988 2234 2988 
Q 1809 2988 1582 2694 
Q 1356 2400 1356 1850 
L 1356 331 
L 2022 331 
L 2022 0 
L 263 0 
L 263 331 
L 781 331 
L 781 2994 
L 231 2994 
L 231 3322 
L 1356 3322 
L 1356 2731 
Q 1525 3078 1790 3245 
Q 2056 3413 2438 3413 
Q 2578 3413 2733 3391 
Q 2888 3369 3059 3328 
z
" transform="scale(0.015625)"/>
      <path id="DejaVuSerif-74" d="M 691 2988 
L 184 2988 
L 184 3322 
L 691 3322 
L 691 4353 
L 1269 4353 
L 1269 3322 
L 2350 3322 
L 2350 2988 
L 1269 2988 
L 1269 878 
Q 1269 456 1350 337 
Q 1431 219 1650 219 
Q 1875 219 1978 351 
Q 2081 484 2088 781 
L 2522 781 
Q 2497 328 2275 118 
Q 2053 -91 1600 -91 
Q 1103 -91 897 129 
Q 691 350 691 878 
L 691 2988 
z
" transform="scale(0.015625)"/>
      <path id="DejaVuSerif-66" d="M 2753 4078 
L 2450 4078 
Q 2447 4313 2317 4434 
Q 2188 4556 1941 4556 
Q 1619 4556 1487 4379 
Q 1356 4203 1356 3750 
L 1356 3322 
L 2284 3322 
L 2284 2988 
L 1356 2988 
L 1356 331 
L 2094 331 
L 2094 0 
L 231 0 
L 231 331 
L 781 331 
L 781 2988 
L 231 2988 
L 231 3322 
L 781 3322 
L 781 3738 
Q 781 4294 1070 4578 
Q 1359 4863 1919 4863 
Q 2128 4863 2337 4825 
Q 2547 4788 2753 4709 
L 2753 4078 
z
" transform="scale(0.015625)"/>
      <path id="DejaVuSerif-67" d="M 3359 2988 
L 3359 72 
Q 3359 -644 2965 -1033 
Q 2572 -1422 1844 -1422 
Q 1516 -1422 1216 -1362 
Q 916 -1303 641 -1184 
L 641 -488 
L 941 -488 
Q 997 -813 1206 -963 
Q 1416 -1113 1806 -1113 
Q 2313 -1113 2548 -827 
Q 2784 -541 2784 72 
L 2784 519 
Q 2616 206 2355 57 
Q 2094 -91 1709 -91 
Q 1097 -91 708 395 
Q 319 881 319 1663 
Q 319 2444 706 2928 
Q 1094 3413 1709 3413 
Q 2094 3413 2355 3264 
Q 2616 3116 2784 2803 
L 2784 3322 
L 3909 3322 
L 3909 2988 
L 3359 2988 
z
M 2784 1825 
Q 2784 2422 2554 2737 
Q 2325 3053 1888 3053 
Q 1444 3053 1217 2703 
Q 991 2353 991 1663 
Q 991 975 1217 622 
Q 1444 269 1888 269 
Q 2325 269 2554 583 
Q 2784 897 2784 1497 
L 2784 1825 
z
" transform="scale(0.015625)"/>
      <path id="DejaVuSerif-69" d="M 622 4353 
Q 622 4497 726 4603 
Q 831 4709 978 4709 
Q 1122 4709 1226 4603 
Q 1331 4497 1331 4353 
Q 1331 4206 1228 4103 
Q 1125 4000 978 4000 
Q 831 4000 726 4103 
Q 622 4206 622 4353 
z
M 1356 331 
L 1900 331 
L 1900 0 
L 231 0 
L 231 331 
L 781 331 
L 781 2988 
L 231 2988 
L 231 3322 
L 1356 3322 
L 1356 331 
z
" transform="scale(0.015625)"/>
      <path id="DejaVuSerif-76" d="M 1581 0 
L 359 2988 
L -19 2988 
L -19 3322 
L 1509 3322 
L 1509 2988 
L 978 2988 
L 1913 703 
L 2847 2988 
L 2350 2988 
L 2350 3322 
L 3597 3322 
L 3597 2988 
L 3225 2988 
L 2003 0 
L 1581 0 
z
" transform="scale(0.015625)"/>
      <path id="DejaVuSerif-6b" d="M 1831 0 
L 219 0 
L 219 331 
L 738 331 
L 738 4531 
L 184 4531 
L 184 4863 
L 1313 4863 
L 1313 1697 
L 2713 2988 
L 2234 2988 
L 2234 3322 
L 3738 3322 
L 3738 2988 
L 3169 2988 
L 2181 2075 
L 3444 331 
L 3922 331 
L 3922 0 
L 2284 0 
L 2284 331 
L 2759 331 
L 1766 1697 
L 1313 1275 
L 1313 331 
L 1831 331 
L 1831 0 
z
" transform="scale(0.015625)"/>
     </defs>
     <use xlink:href="#DejaVuSerif-4a"/>
     <use xlink:href="#DejaVuSerif-6f" x="40.087891"/>
     <use xlink:href="#DejaVuSerif-73" x="100.292969"/>
     <use xlink:href="#DejaVuSerif-65" x="151.611328"/>
     <use xlink:href="#DejaVuSerif-70" x="210.791016"/>
     <use xlink:href="#DejaVuSerif-68" x="274.804688"/>
     <use xlink:href="#DejaVuSerif-73" x="339.208984"/>
     <use xlink:href="#DejaVuSerif-6f" x="390.527344"/>
     <use xlink:href="#DejaVuSerif-6e" x="450.732422"/>
     <use xlink:href="#DejaVuSerif-20" x="515.136719"/>
     <use xlink:href="#DejaVuSerif-63" x="546.923828"/>
     <use xlink:href="#DejaVuSerif-75" x="602.929688"/>
     <use xlink:href="#DejaVuSerif-72" x="667.333984"/>
     <use xlink:href="#DejaVuSerif-72" x="715.136719"/>
     <use xlink:href="#DejaVuSerif-65" x="762.939453"/>
     <use xlink:href="#DejaVuSerif-6e" x="822.119141"/>
     <use xlink:href="#DejaVuSerif-74" x="886.523438"/>
     <use xlink:href="#DejaVuSerif-20" x="926.708984"/>
     <use xlink:href="#DejaVuSerif-66" x="958.496094"/>
     <use xlink:href="#DejaVuSerif-6f" x="995.507812"/>
     <use xlink:href="#DejaVuSerif-72" x="1055.712891"/>
     <use xlink:href="#DejaVuSerif-20" x="1103.515625"/>
     <use xlink:href="#DejaVuSerif-67" x="1135.302734"/>
     <use xlink:href="#DejaVuSerif-69" x="1199.316406"/>
     <use xlink:href="#DejaVuSerif-76" x="1231.298828"/>
     <use xlink:href="#DejaVuSerif-65" x="1287.792969"/>
     <use xlink:href="#DejaVuSerif-6e" x="1346.972656"/>
     <use xlink:href="#DejaVuSerif-20" x="1411.376953"/>
     <use xlink:href="#DejaVuSerif-6b" x="1443.164062"/>
    </g>
    <!-- $\theta=$1.57; $\varphi=$0; $B=$0.4 -->
    <g transform="translate(160.229375 41.508562) scale(0.18 -0.18)">
     <defs>
      <path id="DejaVuSans-Oblique-3b8" d="M 2913 2219 
L 925 2219 
Q 791 1284 928 888 
Q 1100 400 1566 400 
Q 2034 400 2391 891 
Q 2703 1322 2913 2219 
z
M 3009 2750 
Q 3094 3638 2984 3950 
Q 2813 4444 2353 4444 
Q 1875 4444 1525 3956 
Q 1250 3563 1034 2750 
L 3009 2750 
z
M 2444 4913 
Q 3194 4913 3494 4250 
Q 3794 3591 3566 2422 
Q 3341 1256 2781 594 
Q 2225 -72 1475 -72 
Q 722 -72 425 594 
Q 128 1256 353 2422 
Q 581 3591 1134 4250 
Q 1691 4913 2444 4913 
z
" transform="scale(0.015625)"/>
      <path id="DejaVuSans-3d" d="M 678 2906 
L 4684 2906 
L 4684 2381 
L 678 2381 
L 678 2906 
z
M 678 1631 
L 4684 1631 
L 4684 1100 
L 678 1100 
L 678 1631 
z
" transform="scale(0.015625)"/>
      <path id="DejaVuSerif-37" d="M 3609 4347 
L 1784 0 
L 1319 0 
L 3059 4153 
L 903 4153 
L 903 3578 
L 538 3578 
L 538 4666 
L 3609 4666 
L 3609 4347 
z
" transform="scale(0.015625)"/>
      <path id="DejaVuSerif-3b" d="M 231 -622 
Q 525 -406 662 -114 
Q 800 178 800 594 
L 800 709 
L 1416 709 
Q 1391 175 1164 -208 
Q 938 -591 481 -872 
L 231 -622 
z
M 678 2363 
Q 678 2538 798 2658 
Q 919 2778 1094 2778 
Q 1269 2778 1389 2656 
Q 1509 2534 1509 2363 
Q 1509 2188 1389 2067 
Q 1269 1947 1094 1947 
Q 919 1947 798 2067 
Q 678 2188 678 2363 
z
" transform="scale(0.015625)"/>
      <path id="DejaVuSans-Oblique-3c6" d="M 2969 3034 
Q 2766 3034 2675 2581 
L 2259 438 
Q 2553 438 2916 763 
Q 3244 1053 3375 1750 
Q 3497 2400 3300 2750 
Q 3138 3034 2969 3034 
z
M 3063 3525 
Q 3513 3525 3819 3113 
Q 4147 2672 3981 1750 
Q 3828 903 3291 400 
Q 2784 -75 2159 -75 
L 1916 -1331 
L 1344 -1331 
L 1588 -78 
Q 963 -78 641 400 
Q 309 888 475 1747 
Q 647 2641 1166 3097 
Q 1556 3438 2084 3525 
L 1984 3016 
Q 1766 2944 1538 2700 
Q 1194 2341 1081 1747 
Q 963 1116 1156 756 
Q 1334 434 1688 434 
L 2103 2581 
Q 2288 3525 3063 3525 
z
" transform="scale(0.015625)"/>
      <path id="DejaVuSans-Oblique-42" d="M 1081 4666 
L 2694 4666 
Q 3350 4666 3675 4422 
Q 4000 4178 4000 3688 
Q 4000 3238 3720 2911 
Q 3441 2584 2988 2516 
Q 3375 2428 3569 2181 
Q 3763 1934 3763 1522 
Q 3763 819 3242 409 
Q 2722 0 1819 0 
L 172 0 
L 1081 4666 
z
M 1234 2228 
L 903 519 
L 1919 519 
Q 2491 519 2800 781 
Q 3109 1044 3109 1522 
Q 3109 1891 2904 2059 
Q 2700 2228 2247 2228 
L 1234 2228 
z
M 1606 4147 
L 1331 2741 
L 2272 2741 
Q 2775 2741 3058 2959 
Q 3341 3178 3341 3566 
Q 3341 3869 3150 4008 
Q 2959 4147 2541 4147 
L 1606 4147 
z
" transform="scale(0.015625)"/>
     </defs>
     <use xlink:href="#DejaVuSans-Oblique-3b8" transform="translate(0 0.234375)"/>
     <use xlink:href="#DejaVuSans-3d" transform="translate(80.664062 0.234375)"/>
     <use xlink:href="#DejaVuSerif-31" transform="translate(183.935547 0.234375)"/>
     <use xlink:href="#DejaVuSerif-2e" transform="translate(247.558594 0.234375)"/>
     <use xlink:href="#DejaVuSerif-35" transform="translate(279.345703 0.234375)"/>
     <use xlink:href="#DejaVuSerif-37" transform="translate(341.21875 0.234375)"/>
     <use xlink:href="#DejaVuSerif-3b" transform="translate(404.841797 0.234375)"/>
     <use xlink:href="#DejaVuSerif-20" transform="translate(438.533203 0.234375)"/>
     <use xlink:href="#DejaVuSans-Oblique-3c6" transform="translate(470.320312 0.234375)"/>
     <use xlink:href="#DejaVuSans-3d" transform="translate(555.769531 0.234375)"/>
     <use xlink:href="#DejaVuSerif-30" transform="translate(659.041016 0.234375)"/>
     <use xlink:href="#DejaVuSerif-3b" transform="translate(722.664062 0.234375)"/>
     <use xlink:href="#DejaVuSerif-20" transform="translate(756.355469 0.234375)"/>
     <use xlink:href="#DejaVuSans-Oblique-42" transform="translate(788.142578 0.234375)"/>
     <use xlink:href="#DejaVuSans-3d" transform="translate(876.228516 0.234375)"/>
     <use xlink:href="#DejaVuSerif-30" transform="translate(979.5 0.234375)"/>
     <use xlink:href="#DejaVuSerif-2e" transform="translate(1043.123047 0.234375)"/>
     <use xlink:href="#DejaVuSerif-34" transform="translate(1074.910156 0.234375)"/>
    </g>
   </g>
  </g>
 </g>
 <defs>
  <clipPath id="p0cc99b8848">
   <rect x="95.339375" y="47.508562" width="334.8" height="221.76"/>
  </clipPath>
 </defs>
</svg>
